/* XPM */
static char *_e7e612e30be4babe4cfbeaf0a3792780aSKvb6aMBhxXA4K[] = {
/* columns rows colors chars-per-pixel */
"40 40 63 1 ",
"  c #96BCFB",
". c #97BCFB",
"X c #94BBFC",
"o c #97BDFC",
"O c #98BDFC",
"+ c #98BEFC",
"@ c #99BEFC",
"# c #9CBFFC",
"$ c #9FC2FB",
"% c #9BC0FD",
"& c #9EC2FC",
"* c #A2C4FB",
"= c #A5C5FB",
"- c #A1C2FC",
"; c #A2C3FC",
": c #A3C4FC",
"> c #A4C4FC",
", c #A4C5FC",
"< c #A7C7FC",
"1 c #A8C7FC",
"2 c #A9C7FC",
"3 c #A8C8FC",
"4 c #AAC8FC",
"5 c #ABCAFC",
"6 c #ADCBFC",
"7 c #AFCBFC",
"8 c #AFCCFC",
"9 c #B0CCFC",
"0 c #B0CCFD",
"q c #B3CEFC",
"w c #B5CFFC",
"e c #B5D0FC",
"r c #B6D0FC",
"t c #B9D1FC",
"y c #BAD3FC",
"u c #BBD3FC",
"i c #BCD3FC",
"p c #BCD4FC",
"a c #BFD6FC",
"s c #C0D6FC",
"d c #C2D8FC",
"f c #C3D8FC",
"g c #C4D8FC",
"h c #C4D9FD",
"j c #C5DAFC",
"k c #C7DBFC",
"l c #CADCFC",
"z c #CADDFC",
"x c #CDDEFC",
"c c #CDDFFC",
"v c #CFDFFC",
"b c #CFE0FC",
"n c #D0E0FC",
"m c #D3E3FC",
"M c #D4E3FC",
"N c #D6E4FC",
"B c #D7E4FC",
"V c #D7E5FD",
"C c #D9E6FC",
"Z c #DBE7FC",
"A c #DAE7FD",
"S c #DCE8FC",
"D c #DDE9FC",
/* pixels */
"+ooXXooo++++#+++++XXXXXXXXo.;&;&-:#&#+++",
"XoXo+ooo++++++..XXXXXXXXX+.XooXo+++XXXXX",
"o+&&#&&&&+&%++++O+XXX+X+++##ooo.XXXXXXXX",
"&,2575522,**-:-&##+XXX+&----&&&.++++X+++",
"6qtpitrwq6q652552>&+X+#-2,,,-&&#+#++++:,",
"pfklllhspfurqqqqq9,+X+&,2955,:-&&&-:,5qt",
"nnmmnnclhhspwwwww7;+X+#>255,,:&-:::5wtsl",
"ZZCCCVnnllstrqqw75;.X+#-,,25,,*--,2wtscV",
"DDZVCVnnzhae65555-#+XX++*,,,,-,-->,7wfbC",
"ZVCmnbbhstq8::&&&+XXXXXo+&&---&-#-,7rpcC",
"nmbbllsiwq2,:&**++XXXXXo+++#&%.$+#+-,tsb",
"hffasitq22,,<762,-+XXXXX++++oooo+X++-,qp",
"eqeqq7,,$,2qtpstw,&+ooXo++++oooXXXXX.&*5",
":,2,-&&&:6qajzzjiq,-#+oo+#&&&&#++XXXX..&",
"oo%oo+&-6uhcbBBbhpq2>-#+#--,5,,,&+XXXXXo",
"oXXXXo-7thnBZZZblstq95-&+-,275q5,&#o++XX",
"XXXX++*wjnNZZCVchspiq5-&o-277qq77:&&ooXX",
"XXXXX#,wjnnVBnccsptqq5-&+:,5qqqq6:--&ooX",
"XXXXX+;qijhhffptwq667-&+++-::5557:*-;o.X",
"XXXXXX&,5wqqqq77,,-,-#oXoo+&:-:--:--&o%o",
"XXXXXXo.;&;&-&:&+++++++XXX+Xooo&++#+ooXX",
"XXXXo+o  ooXooXXoXXXXXXX++++oooo++..XXXX",
"X+++.+&+++.oooXXXXXX++&&-&+-&&%.+++XoXoX",
"XX+#&----&.o+ooXXo++--2975525,,,-:--&#oX",
"X+#-22::;&&&.&o&%%;,5qttttrrqq6q5525:,&o",
"X+&,7252,;&&&&&-,2qtsfzzllhspprrqqqqw6:&",
"O+#,5552,,;*-,,5qtazbbbVncnllkftrrwwq7*+",
"XX#-,52,,:**-,77tszVZZBZCVnnlffprqqq75:o",
"XX+#-:,,,,---:*qtjcCDZZZZBnclfpe65522-+X",
"XXX++&&---&&&&-5qscDDDZnnnclfu66,:&:&++X",
"XXXXX++###&+++.&2wscnnncllhpw66,---&#+XX",
"XXXX+++++X+oo+oo&29shshhstw675,,:799,&o ",
"+X+++++++++X+XXX+#>7qqwq7q::*:5qwpspq,&o",
"#+X++##-&&+++XXXXX+-::5---&&-5qphczhaq,;",
",>##+&-,2:,-#++XXXXX++++++#:7thccNnnhte2",
"w,-#&:,577q5,-++++XXXXX+Xo&7tlcBSZZNzsew",
"q5-&#-27qqqq7--+.+.XXXXXX#,whnCZCZNcjsat",
"q5-#+--77qq57:-:&%.oXXXXX#,whncBVnnkaite",
"5,&++&&,:5q55:,:&.oXXXXXXo:qpshlsjssqq55",
"&o+Xo+o+&--:-:&-&ooXXXXoXo%,qqwqq9552;*,"
};
