/* XPM */
static char *_0925b143ed24629e815d25889818327d5eeKcvvAYhEnLmj[] = {
/* columns rows colors chars-per-pixel */
"40 40 145 2 ",
"   c None",
".  c #223B62",
"X  c #233D6E",
"o  c #223E71",
"O  c #1A417C",
"+  c #204277",
"@  c #1C4582",
"#  c #124792",
"$  c #144995",
"%  c #204689",
"&  c #2A549A",
"*  c #355C98",
"=  c #0C4AA5",
"-  c #064EB5",
";  c #084FB7",
":  c #0051C2",
">  c #0053CB",
",  c #0055D4",
"<  c #0659D5",
"1  c #0B5CD6",
"2  c #1157D0",
"3  c #135ED6",
"4  c #1F5AD3",
"5  c #225BD3",
"6  c #2F5FD2",
"7  c #1561D7",
"8  c #1A62D7",
"9  c #1663D8",
"0  c #1C66D8",
"q  c #2465D7",
"w  c #2B66D6",
"e  c #2466D8",
"r  c #2966D8",
"t  c #2469D9",
"y  c #2B6EDA",
"u  c #3460D1",
"i  c #3C64D0",
"p  c #336ED9",
"a  c #2F73DB",
"s  c #3473DB",
"d  c #3D76DB",
"f  c #3678DD",
"g  c #3C7BDD",
"h  c #4267CD",
"j  c #4C6CCC",
"k  c #5C76CF",
"l  c #496CD4",
"z  c #457BD7",
"x  c #4B7ED4",
"c  c #4377DB",
"v  c #447DDC",
"b  c #497BDC",
"n  c #6077CA",
"m  c #637ACF",
"M  c #647CD1",
"N  c #5784CD",
"B  c #4381DF",
"V  c #4B84DE",
"C  c #5181D1",
"Z  c #5485DF",
"A  c #5E86DE",
"S  c #568BDE",
"D  c #5B8ADE",
"F  c #6089CC",
"G  c #7284CA",
"H  c #6C81D0",
"J  c #648CD1",
"K  c #6F86D9",
"L  c #628FDD",
"P  c #7286D2",
"I  c #7689D4",
"U  c #6393DE",
"Y  c #7297DC",
"T  c #729CDF",
"R  c #4784E0",
"E  c #4986E0",
"W  c #568EE2",
"Q  c #598EE2",
"!  c #5990E3",
"~  c #618EE1",
"^  c #6395E4",
"/  c #6D95E2",
"(  c #6599E5",
")  c #6F99E4",
"_  c #729AE3",
"`  c #72A1E7",
"'  c #79A1E6",
"]  c #74A2E8",
"[  c #7EA9E9",
"{  c #9EA2B5",
"}  c #A3A5AC",
"|  c gray67",
" . c #A5A8B6",
".. c #B6B6B6",
"X. c #B3B5BF",
"o. c #BBBBBB",
"O. c #8A95C5",
"+. c #8D98C8",
"@. c #8795D1",
"#. c #8997D2",
"$. c #8E9AD3",
"%. c #929ED4",
"&. c #97A0CB",
"*. c #96A2D5",
"=. c #9BA5D3",
"-. c #9EADD4",
";. c #94A0D9",
":. c #9AA6DB",
">. c #93A8DC",
",. c #A5A9C0",
"<. c #A4ACD3",
"1. c #A2ABD8",
"2. c #ABB3D7",
"3. c #ABB4DC",
"4. c #81ABE9",
"5. c #8CB2EB",
"6. c #97B7EB",
"7. c #96B9ED",
"8. c #9ABCED",
"9. c #B3BBE0",
"0. c #A6C3EF",
"q. c #A8C5EF",
"w. c #BDC4E4",
"e. c #A9C5F0",
"r. c #C3C3C3",
"t. c #C6C7C9",
"y. c #CDCDCD",
"u. c #C3C7D8",
"i. c #C6C9DB",
"p. c #D3D3D3",
"a. c #DCDCDC",
"s. c #C6CBE1",
"d. c #CACEE1",
"f. c #DADDE4",
"g. c #D7DCEB",
"h. c #DBDEEC",
"j. c #DDE0EF",
"k. c #E3E3E3",
"l. c #E3E4E9",
"z. c #ECECEC",
"x. c #EBECF1",
"c. c #F3F3F3",
"v. c #F1F3FA",
"b. c #F7F8FB",
"n. c #FEFEFE",
/* pixels */
"                                                                                ",
"    s _ ' _ ' ' ] _ ] _ _ 4.' ' _ [ _ ] ' _ [ _ _ 4.' ' [ ' [ ] @.4.] [ 4.Q     ",
"  r _ p b Q ~ L L M Q Q ~ ~ ~ Q ~ ~ ~ ~ Q ~ ~ Q ~ ~ M Q ~ Q ~ M ~ ~ ~ Q 5 ) Q   ",
"  ^ s _ 8.e.9.8.e.e.8.e.e.8.9.e.9.e.e.8.e.9.8.e.e.e.e.e.8.e.e.e.e.e.8.e.8.r )   ",
", ^ p 7.8.7.7.8.7.7.8.7.8.7.7.8.8.8.8.8.8.8.8.8.8.8.8.8.8.8.8.8.8.8.8.8.8./ ^ p ",
"< Q Q 5.5.5.5.5.5.4.5.5.5.5.5.5.5.5.5.5.5.5.5.5.5.5.5.5.6.5.5.6.5.7.7.5.6._ Q f ",
", Q E [ [ [ [ [ [ [ [ [ [ [ [ [ [ [ [ ] 4.[ [ [ 4.4.[ 4.4.4.4.4.4.4.4.4.4._ W s ",
"< E v ` ` ] ) ) ` ` ` ` ` ` ` ` ] ] ] ] ] ] ] ] ] ] ] ] ] ] ] ' ] ] ] ] _ ( b s ",
"< b v ^ ^ ^ ^ ^ ^ ^ ^ ^ ^ ^ ^ ( ( ( ( ^ ^ ( ( ( ( ( ( ( ( ( ( ( ( ( ( ( ( Q v y ",
", b r E W W W W W W W W W W W W W W W W ! ! W Q ! W ! ! ! ! ! ! ! ! ! ! W c c y ",
", g , , 9 a g R R R R R R R R R E E E E E E Q Y / ~ E E E E E E R v f e < , f t ",
"< f , , , , , , 9 t a a f g g g g g g g >.g.c.b.b.c.f.1.b a y q 1 , , , , , s e ",
", a , , , , , , , , , , , , < 3 9 9 r s.n.n.n.n.n.n.n.c.X.j , , , , , , , , s 0 ",
", y < , , , , , , , , , , , , , , , 9.n.n.n.n.n.n.n.n.b.a. .3 , , , , , , , y 9 ",
", t , , , , , , , , 6 $.s.l.z.z.l.j.b.n.n.n.n.n.n.c.z.z.p.r.M < , , , , , , r 9 ",
", 0 , , , , , , , ;.v.n.n.n.n.n.n.n.n.n.n.n.n.b.k.y.o.....a.s.n , , , , , , 9 7 ",
", 9 , , , , , , 2.n.n.n.n.n.n.n.n.n.n.n.n.n.c.a...r.a.k.l.z.b.a. .h , , , , 8 1 ",
", 3 , , , , , m b.n.n.n.n.n.n.n.b.c.z.z.z.z.p...p.z.b.n.n.n.n.n.a.} i , , , 1 1 ",
", 1 , , , , , 1.n.n.n.n.n.b.c.a.y.r.o...o...| p.c.n.n.n.n.n.n.n.b.y.&., , , 1 < ",
", , , , , , , =.n.n.n.n.b.k.r...r.p.a.a.a.a.k.c.n.n.n.n.n.n.n.n.n.x.i., , , < < ",
", , , , , , , K n.n.n.b.a.o.r.k.c.b.n.b.n.b.n.n.n.n.n.n.n.n.n.n.n.n.3., , , < < ",
", 1 , , , 5 3.b.n.n.n.z.o.y.z.n.n.n.n.n.n.n.n.n.n.n.n.n.n.n.n.n.n.v.l , , , 1 < ",
", 1 , , 5 i.n.n.n.n.b.a...z.n.n.n.n.n.n.n.n.n.n.n.n.n.n.n.n.n.n.n.n.1., , , 3 1 ",
", 9 , , =.n.n.n.n.n.b.p.o.c.n.n.n.n.n.n.n.n.n.n.n.n.n.n.n.n.n.n.n.n.v.G , , 9 1 ",
", 0 , , i.n.n.n.n.n.c.y.o.c.n.n.n.n.n.n.n.n.n.n.n.n.n.n.n.n.n.n.n.n.n.<., , 9 3 ",
", t , , +.b.n.n.n.c.a.o.r.c.n.n.n.n.n.n.n.n.n.n.n.n.n.n.n.n.n.n.n.n.c.m , , e 9 ",
", y , , 4 ,.k.c.l.p...y.z.n.n.n.n.n.n.n.n.n.n.n.n.n.n.n.n.n.n.n.n.x.P , , , t 8 ",
", f , , , 4 O.r.a.k.z.b.n.n.n.n.n.n.n.n.n.n.n.n.n.n.n.n.n.n.b.j.:.5 , , , , y e ",
", f , , , , , u $.i.z.n.n.n.n.n.n.n.n.n.n.n.n.n.n.b.x.g.w.;.l , , , , , , , s t ",
"< g , , , , , > , , , j H @.$.#.P k j k M M M m j 2 , > , , , > > , , , , > f r ",
", v > > > > > > > > > > > > > > > > > > > > > > > > > > > > > > > > > > > > d y ",
", V : : : : : : : : : : : : : : : : : : : : : : : ; : : : : : : : : : : : : z y ",
", V ; ; - - - - - - - - - - - - - - - - - - - - - - - - - - - - - - - - - - x s ",
"< S = = = = = = = = = = = = = = = = = = = = = = = = = = = = = = = = = = = = N s ",
"< U $ # # # # # # # # # # # # # # # # # # # # # # # # # # # # # # # # # $ # N d ",
"< U O O O O O O O O O O O O O O O O O O O O O O O O O O O O O O O O O O O O N d ",
"  ^ * . . . . . . . . . . . . . . . . . . . . . . . . . . . . . . . . . . + T   ",
"  p T & o X X X X X X X X X X X X X X X X X X X X X X X X X X X X X X o % J ~   ",
"    c ' _ ) ) ) Y ) ) ) Y ) Y ) _ ) Y ) _ _ ) _ ) ) _ _ _ ) _ _ _ _ _ _ [ ^     ",
"        s d d d c d d d c d d d c d d d d c d d c d c d d c c d d d c d         "
};
