/* XPM */
static char *c7f8ffa5197b44a6e357adb20e988d1aEYWrrbZrcda0hpxe[] = {
/* columns rows colors chars-per-pixel */
"40 40 2 1 ",
"  c None",
". c yellow",
/* pixels */
"                                        ",
"                                        ",
"                                        ",
"                                        ",
"                                        ",
"                                        ",
"                                        ",
"                                        ",
"                                        ",
"                                        ",
"                                        ",
"                .      .                ",
"                                        ",
"                 .    .                 ",
"                 .    .                 ",
"                .   .  .  .             ",
"           .   . ......     .           ",
"             .. .......  ..             ",
"                ........                ",
"               .........                ",
"                .........               ",
"                ........                ",
"             .. ........ ..             ",
"           .   . ...... .   .           ",
"              . .  .   .                ",
"                 .    . .               ",
"                 .    .                 ",
"                                        ",
"                .      .                ",
"                                        ",
"                                        ",
"                                        ",
"                                        ",
"                                        ",
"                                        ",
"                                        ",
"                                        ",
"                                        ",
"                                        ",
"                                        "
};
