/* XPM */
static char *_72d9c4a9e564399f84d034142641149oIRGKGNbcG4tIykl[] = {
/* columns rows colors chars-per-pixel */
"40 40 86 1 ",
"  c None",
". c #E33A2E",
"X c #E43A2E",
"o c #E3462D",
"O c #B88E12",
"+ c #BE9313",
"@ c #D2931C",
"# c #FF861D",
"$ c #FF871D",
"% c #FF881D",
"& c #FF891D",
"* c #FF8A1D",
"= c #FF8D1D",
"- c #FF8F1D",
"; c #FF901D",
": c #FF931D",
"> c #FF951D",
", c #FF961D",
"< c #FF981D",
"1 c #FF991D",
"2 c #FF9A1D",
"3 c #FF9B1D",
"4 c #DAA917",
"5 c #E0AE18",
"6 c #E2AF18",
"7 c #E2AF19",
"8 c #FFA21D",
"9 c #FFA31D",
"0 c #FFA51D",
"q c #FFA61D",
"w c #FFA71D",
"e c #FFAA1D",
"r c #FFAB1D",
"t c #FFAD1D",
"y c #FFAE1D",
"u c #E9B419",
"i c #EAB61A",
"p c #F1B21F",
"a c #FFB11D",
"s c #FFB61D",
"d c #FFB71D",
"f c #F0BB1B",
"g c #F5BE1C",
"h c #FFB91D",
"j c #FFBA1D",
"k c #FFBB1D",
"l c #FFBC1D",
"z c #FFBD1D",
"x c #FFBE1D",
"c c #DF9321",
"v c #EA9624",
"b c #EDA023",
"n c #F1AA21",
"m c #F2AD20",
"M c #F4AF21",
"N c #F6B121",
"B c #FAC21C",
"V c #FFC01D",
"C c #FFC11D",
"Z c #FCC31D",
"A c #FFC21D",
"S c #FCC41D",
"D c #FDC51D",
"F c #FFC41D",
"G c #FFC51D",
"H c #FFC61C",
"J c #FEC61D",
"K c #FFC61D",
"L c #FFC61F",
"P c #F7C025",
"I c #FFC72B",
"U c #FEC834",
"Y c #C1A56A",
"T c #FDCB50",
"R c #FDCB54",
"E c #FCCD5D",
"W c #EBC266",
"Q c #FCCD63",
"! c #F1C768",
"~ c #AEA88E",
"^ c #C3AE81",
"/ c #C3BB9F",
"( c #F7D996",
") c #F6DA9B",
"_ c #E6D4AB",
"` c #E7D9B6",
/* pixels */
"                                        ",
"                                        ",
"                                        ",
"                                        ",
"                                        ",
"                                        ",
"                                        ",
"                 #   #                  ",
"                 # # #   #              ",
"            ## # # # #  #               ",
"             # # #####  ###             ",
"             ######### ###  ##          ",
"          ##  ###3www:########          ",
"        ##  ###wAKKKKKh3#####           ",
"         ####*hKKKKKKKKKw######         ",
"          ###dKKKKKKKKKKK9#####         ",
"            9KKKKKKKKKKKKA=###          ",
"           #hKK4+BKKK7+fKKr#####        ",
"          #=KKKUPuKKKu()IKh###          ",
"           3KKQ`_KKKKR/~EKK#####        ",
"        ###3KKT^YKKKKK!WKKK###          ",
"           ,KKKKKKKKKKKKKKx###          ",
"          ##AKKKKgKKKK7KKKa#####        ",
"           #yKKK7@MNbcBKKK,###          ",
"         ###*AKAKpoX.nKKKa#####         ",
"           ##:AKKKNvmKKKh*####          ",
"          ####=hKKKKKKKy*### ##         ",
"          # ####,ydxdr=######           ",
"            ### ########### ##          ",
"             ##  ######## #             ",
"             #   ###### #               ",
"                ##  # #                 ",
"                 #    #                 ",
"                                        ",
"                                        ",
"                                        ",
"                                        ",
"                                        ",
"                                        ",
"                                        "
};
