/* XPM */
static char *b6a3565315744a43c35219104b5919f9zneMlgG6KJBPFMeU[] = {
/* columns rows colors chars-per-pixel */
"40 40 158 2 ",
"   c None",
".  c black",
"X  c gray6",
"o  c #002D3A",
"O  c #343434",
"+  c gray35",
"@  c #AB0700",
"#  c #AE0801",
"$  c #B30A02",
"%  c #BC0800",
"&  c #D30A00",
"*  c #C21107",
"=  c #C71309",
"-  c #CB150A",
";  c #D2170C",
":  c #D6190E",
">  c #DA1A0F",
",  c #DD1B10",
"<  c #F60403",
"1  c #FD0403",
"2  c #F70A07",
"3  c #FE0A06",
"4  c #F70E09",
"5  c #FD0D09",
"6  c #E7180D",
"7  c #E8190E",
"8  c #E5170B",
"9  c #F7140E",
"0  c #FE130D",
"q  c #FA1A07",
"w  c #E41D11",
"e  c #EC1D11",
"r  c #FE1710",
"t  c #FE1B13",
"y  c #FE1D1B",
"u  c #F41B13",
"i  c #FA2405",
"p  c #FA230A",
"a  c #F82909",
"s  c #FC3B06",
"d  c #FA350A",
"f  c #FE3D0E",
"g  c #EC2117",
"h  c #F42216",
"j  c #FD2216",
"k  c #FF2B16",
"l  c #FF2519",
"z  c #FF2B1D",
"x  c #FF3313",
"c  c #FF3911",
"v  c #FF2F20",
"b  c #FF3323",
"n  c #FF3927",
"m  c #FF3D29",
"M  c #FB3E3C",
"N  c #FE430C",
"B  c #FC5816",
"V  c #F8650D",
"C  c #FF432D",
"Z  c #FC5D24",
"A  c #FF4630",
"S  c #FF4C34",
"D  c #FF5137",
"F  c #FF5439",
"G  c #FF593C",
"H  c #FC622B",
"J  c #FF5F41",
"K  c #FE5E4A",
"L  c #FD5250",
"P  c #FF6444",
"I  c #FF6947",
"U  c #FF6D4A",
"Y  c #FF714D",
"T  c #FD615C",
"R  c #FF7651",
"E  c #FF7A53",
"W  c #F76262",
"Q  c #FC706E",
"!  c #FC7473",
"~  c #F27575",
"^  c #F1A31C",
"/  c #F39A28",
"(  c #E3B121",
")  c #DDCE24",
"_  c #DDD925",
"`  c #E3C221",
"'  c #E8C724",
"]  c #E8C629",
"[  c #E2DF39",
"{  c #E7D23B",
"}  c #DBE726",
"|  c #D7EE28",
" . c #DDEA29",
".. c #DEE52B",
"X. c #D6F429",
"o. c #D4FE2A",
"O. c #DFE736",
"+. c #FF8057",
"@. c #FF855B",
"#. c #FF8B5F",
"$. c #FD876D",
"%. c #FB857F",
"&. c #FC977E",
"*. c #EACB4A",
"=. c #E6D870",
"-. c #006B88",
";. c #008AAE",
":. c #0091B7",
">. c #0097BD",
",. c #00A7D1",
"<. c #00AEDA",
"1. c #00B8E6",
"2. c #00BDED",
"3. c #20BEEC",
"4. c #47CBF9",
"5. c #5FCFFA",
"6. c #54CDF9",
"7. c #5DD0FA",
"8. c #63D1FB",
"9. c #7AD6FD",
"0. c #8699A4",
"q. c #9DA0A1",
"w. c #FA8787",
"e. c #FB948C",
"r. c #FC9E89",
"t. c #FA9D95",
"y. c #F8A19F",
"u. c #F9AB9D",
"i. c #F8A4A1",
"p. c #F8B0AA",
"a. c #F6B3B2",
"s. c #F7BFB2",
"d. c #EFC594",
"f. c #DBFB80",
"g. c #F6C4BB",
"h. c #E0F9A2",
"j. c #EAE4BB",
"k. c #89D9FC",
"l. c #98DCFC",
"z. c #A6DFFB",
"x. c #BAE4FA",
"c. c #F5C2C1",
"v. c #F3CDCC",
"b. c #F2D7D6",
"n. c #F1DCDC",
"m. c #ECECDB",
"M. c #F1E0DF",
"N. c #C4E6F9",
"B. c #CBE8F9",
"V. c #D1EAF8",
"C. c #DAEDF8",
"Z. c #EFEEEE",
"A. c #F0E4E3",
"S. c #F0E9E9",
"D. c #EEF2E7",
"F. c #ECF2F5",
"G. c #E5F0F6",
"H. c #F2F2F2",
/* pixels */
"                                          <                                     ",
"                                        9   4     <                             ",
"                                      r   r   u 9   2 <                         ",
"                                    l g l h h t u r     1 <                     ",
"                                l z v v v v z z l   r 0   < < <                 ",
"                          h l z b b b m b m n b v z l u 0 4                     ",
"                        t l z b m m C A A A C m n b z l u                       ",
"                      t l b b m C A S S S S A A C n b z j                       ",
"                    r j z b m C A D F G G G F S A C m b l t                     ",
"                  0 t ! i.i.w.A F G P P P P J G K e.i.t.W j t                   ",
"                2 ! n.H.H.H.Z.A.e.P I U U U P p.Z.Z.H.H.Z.v.L r                 ",
"                ! Z.H.H.H.H.H.H.Z.t.Y R R R g.H.Z.H.H.H.H.Z.M.M                 ",
"              2 b.H.H.N.8.7.x.H.Z.A.E +.+.&.D.H.H.l.4.9.C.H.Z.a.                ",
"              W S.H.C.1.o q.<.V.H.Z.r.@.#.g.H.H.z.:.+ 0.4.F.H.M.4               ",
"              ~ H.H.B.,.. O :.x.H.Z.r.+.#.g.H.H.k.-.X O 2.F.H.A.5               ",
"              y Z.S.F.8.>.>.6.F.H.Z.$.+.+.i.H.H.V.3.;.,.l.H.H.v.4               ",
"              < a.H.H.F.B.N.F.H.H.m.[ ..[ *.m.F.H.G.N.V.H.H.F.w.5               ",
"              2 y c.H.H.H.H.H.D.=.o.o.o.o.o.o.h.H.H.H.H.H.S.t.0 q l             ",
"            l q 3 5 w.v.M.M.v.=.o.o.o.o.o.o.o.o.d.b.A.n.c.Q r 5 u l             ",
"          # l h 1 5 r t l b n H o.o.o.o.o.o.o...A m b v j t r 3 k l =           ",
"        @ % z k 5 3 5 r j z v m ' o.o.o.o.o.o./ m b b l y 0 5 q k l : @         ",
"        @ ; z x a 1 3 0 t j l v Z o.X.| | o.} n b v l j r 0 < k k k w @         ",
"      @ @ ; l k x q 1 3 0 t j l l ] } ) ) X./ v z j t r 0 3 p x k k w @ @       ",
"      @ @ ; k l x x q 3 3 0 r t j B X.( `  .l l j t 0 0 3 p x x k k w @ @       ",
"    @ @ @ = l k x x c a 1 3 5 0 r r ' ` _ ^ t r r 0 5 3 a c x x k k , @ @ @     ",
"    @ @ @ $ l k k x x c d q 3 3 5 5 B }  .0 0 0 5 3 q d c c x k z l = # @ @     ",
"    @ @ @ @ h k k x x c f f d i 1 3 3 ' ^ 3 3 2 p d N N c x x x k j $ @ @ @     ",
"  @ @ @ @ @ : l k x x c f f s N N N s V s s N N N N f c c x x k k e @ @ @ @ @   ",
"  @ @ @ @ @ $ l k k x x c c c N N N N N N N N N N N c c x x k k l * @ @ @ @ @   ",
"  @ @ @ @ % & 8 l k k x x c c f N s N N N N N N c c c x x x k l e & % @ @ @ @   ",
"@ @ @ % & & & 6 l l l x x x c c c c N f N c N c c c x x x k k l e & & & % @ @ @ ",
"@     & & & e l l l k k k x x x x c c c c x c x x x x k k l l j j e & & &     @ ",
"      & &   l j     l l l x k x x x x x f x x x x k k k l l     l l   & &       ",
"              l         l l k z k k k x k k x k k k k l l       l               ",
"                          l l k k k k k k k k k k l l                           ",
"                              > g l l l l l l 7                                 ",
"                                              @                                 ",
"                              @ @             @                                 ",
"                            @ @ @ @         @ @ @                               ",
"                                              @                                 "
};
