/* XPM */
static char *_926feb0c9e44fc7da7c985bcac64e00mAu9aXZDj6ZIU459[] = {
/* columns rows colors chars-per-pixel */
"40 40 156 2 ",
"   c None",
".  c black",
"X  c #010000",
"o  c #020200",
"O  c #030200",
"+  c #050500",
"@  c gray2",
"#  c #120C00",
"$  c #151500",
"%  c #310000",
"&  c #390000",
"*  c #231900",
"=  c #2F2300",
"-  c #352700",
";  c #372900",
":  c #232323",
">  c #313131",
",  c gray22",
"<  c #3F3F3F",
"1  c #4E0000",
"2  c #520000",
"3  c #5E0000",
"4  c #620000",
"5  c #6A0000",
"6  c #6F0000",
"7  c #493800",
"8  c #4D3A00",
"9  c #503D00",
"0  c #523E00",
"q  c #454500",
"w  c #474700",
"e  c #5F4800",
"r  c #535300",
"t  c #6B5200",
"y  c #725800",
"u  c #795E00",
"i  c #7A5E00",
"p  c #656500",
"a  c #696900",
"s  c #6E6E00",
"d  c #777700",
"f  c #444444",
"g  c gray30",
"h  c #717171",
"j  c #747474",
"k  c #810000",
"l  c #880000",
"z  c #8C0000",
"x  c #980000",
"c  c #9B0000",
"v  c #9D0000",
"b  c #AA0000",
"n  c #B30000",
"m  c #B60000",
"M  c #B70000",
"N  c #BB0000",
"B  c #C50000",
"V  c #C70000",
"C  c #CC0000",
"Z  c #D10000",
"A  c #D90000",
"S  c #DC0000",
"D  c #DE0000",
"F  c #E70000",
"G  c #EB0000",
"H  c #EC0000",
"J  c #EF0000",
"K  c #F80000",
"L  c #F90000",
"P  c #FA0000",
"I  c #FB0000",
"U  c #FC0000",
"Y  c red",
"T  c #8C6D00",
"R  c #9E7B00",
"E  c #A17D00",
"W  c #A27E00",
"Q  c #A48000",
"!  c #A88300",
"~  c #AB8600",
"^  c #AD8700",
"/  c #B89000",
"(  c #BD9400",
")  c #A0A000",
"_  c #A2A200",
"`  c #A6A600",
"'  c #AEAE00",
"]  c #B6B600",
"[  c #BBBB00",
"{  c #C19700",
"}  c #CC9F00",
"|  c #D5A600",
" . c #D9AA00",
".. c #DAAA00",
"X. c #DBAB00",
"o. c #DCAC00",
"O. c #E1B000",
"+. c #E5B400",
"@. c #E7B500",
"#. c #E8B500",
"$. c #E8B600",
"%. c #E9B600",
"&. c #ECB900",
"*. c #F1BD00",
"=. c #F4BF00",
"-. c #C8C800",
";. c #CCCC00",
":. c #D5D500",
">. c #DADA00",
",. c #DEDE00",
"<. c #DFDF00",
"1. c #F5C000",
"2. c #F9C300",
"3. c #FAC400",
"4. c #FBC500",
"5. c #FCC600",
"6. c #FEC700",
"7. c #FFC800",
"8. c #E2E200",
"9. c #E4E400",
"0. c #EFEF00",
"q. c #F1F100",
"w. c #F9F900",
"e. c #FAFA00",
"r. c #FBFB00",
"t. c yellow",
"y. c #848484",
"u. c #888888",
"i. c #8B8B8B",
"p. c gray55",
"a. c #8E8E8E",
"s. c #909090",
"d. c gray58",
"f. c #959595",
"g. c #9B9B9B",
"h. c #A0A0A0",
"j. c #A4A4A4",
"k. c gray66",
"l. c #AFAFAF",
"z. c #B7B7B7",
"x. c #B9B9B9",
"c. c gray",
"v. c #C1C1C1",
"b. c #C5C5C5",
"n. c #C8C8C8",
"m. c #CACACA",
"M. c #CBCBCB",
"N. c #D2D2D2",
"B. c gray85",
"V. c #E7E7E7",
"C. c gray94",
"Z. c #F6F6F6",
"A. c gray97",
"S. c gray98",
"D. c gray99",
"F. c white",
/* pixels */
"                                      .                                         ",
"                                      .                                         ",
"                                    . . .   .                                   ",
"                                . . . . . . .                                   ",
"                                . . . . . . .                                   ",
"                                . . . . . . . .                                 ",
"                            . . . . . . . . . . . .                             ",
"                          . . . . . . . . . . . . . .                           ",
"                        . . . . . . . . . . . . . . . .                         ",
"                      . . . . . . . . . . . . . . . . . .                       ",
"                    . . . . . . . . . . . . . . . . . . . .                     ",
"                  . . . . . g.C.B.f . . . . @ n.S.v.. . . . .                   ",
"                  . . . . g S.F.F.b.. . . . j.F.F.F.u.. . . .                   ",
"                . . . . . d.F.F.F.V.. . . . M.F.F.F.c.. . . . .                 ",
"                . . . . . a.F.g.s.V.. . . . n.S.f v.z.. . . . .                 ",
"          . . . . . . . . , A.a.j x.. . . . u.A.: x.h . . . . . . . .           ",
"      . . . . . . . . . . . y.N.l.> . . . . . k.n.d.. . . . . . . . . . .       ",
"    . . . . . . . . . . . . . . . . . . . . . . . . . . . . . . . . . . . .     ",
"  . . . . . . . . 1 z % . . . . . . . . . . . . . . . . . k 5 . . . . . . . .   ",
". . . . . . . . l I Y C . . . . . . + d i # . . . . . . x Y Y N . . . . . . . . ",
". . . . . . . 3 I Y Y F . . . w ` >.w.t.7.4.X.^ 8 . . . V Y Y Y x . . . . . . . ",
". . . . . . . V Y Y Y A . q -.w.t.t.t.t.7.7.7.7.5.} 9 . b Y Y Y J . . . . . . . ",
". . . .   . . G Y Y Y v r q.t.t.t.t.t.t.7.7.7.7.7.7.*.e 2 I Y Y Y 4 .   . . . . ",
". . . .   . . J Y Y D . [ t.t.t.t.t.t.t.7.7.7.7.7.7.7.{ . M Y Y Y 6 .   . . . . ",
"  . . .   . . n Y C & . :.t.t.t.t.t.t.t.7.7.7.7.7.7.7.O.. . M K D . .   . . .   ",
"  . . .   . . . . . . . ,.t.t.t.t.t.t.t.7.7.7.7.7.7.7.@.. . . . . . .   . . .   ",
"  . . .   . . . . . . . ;.t.t.t.t.t.t.t.7.7.7.7.7.7.7.| . . . . . . .   . . .   ",
"    . .   . . . . . . . ' t.t.t.t.t.t.t.7.7.7.7.7.7.7./ . . . . . . .   . .     ",
"    .     . . . . . . . p t.t.t.t.t.t.t.7.7.7.7.7.7.7.i . . . . . . .     .     ",
"            . . . . . . . 9.t.t.t.t.t.t.7.7.7.7.7.7.&.. . . . . . .             ",
"            . . . . . . . _ t.t.t.t.t.t.7.7.7.7.7.7.~ . . . . . . .             ",
"              . . . . . . $ 0.t.t.t.t.t.7.7.7.7.7.=.; . . . . . .               ",
"                . . . . . . _ t.t.t.t.t.7.7.7.7.7.~ . . . . . .                 ",
"                  . . . . . . 8.t.t.t.t.7.7.7.7.%.. . . . . .                   ",
"                  o.9 . . . . s w.t.t.t.7.7.7.5.i . . . . 7 o.                  ",
"                7.7.1.Q . . . . ] t.t.t.7.7.7.( . . . . R =.7.7.                ",
"                7.7.7.7.%.Q ; . . 8.t.t.7.7.@.* . = E %.7.7.7.7.                ",
"                7.7.7.7.7.7.2.X.T a w.t.7.4.y t X.2.7.7.7.7.7.7.                ",
"                      7.7.7.7.7.      t.7.      5.7.7.7.7.                      ",
"                            7.                    7.                            "
};
