/* XPM */
static char *_d9b3486f5b84c40dce51a9e8bb7cd16r3CQxD8rbvnhIgKl[] = {
/* columns rows colors chars-per-pixel */
"40 40 174 2 ",
"   c None",
".  c #0B0100",
"X  c #0A0101",
"o  c #0B0101",
"O  c #0B0202",
"+  c #0B0303",
"@  c #0B0404",
"#  c #0B0808",
"$  c #0B0A09",
"%  c #0A1927",
"&  c #0B1828",
"*  c #0B2034",
"=  c #0B2338",
"-  c #0B2B43",
";  c #0B2C45",
":  c #0B3552",
">  c #0B3755",
",  c #0A3951",
"<  c #0A3854",
"1  c #0A3C56",
"2  c #0A3F57",
"3  c #0A3B5A",
"4  c #0A3C59",
"5  c #0A3D5D",
"6  c #0A3F61",
"7  c #0A4161",
"8  c #0A4262",
"9  c #0A4565",
"0  c #0A4568",
"q  c #0A4669",
"w  c #0A466A",
"e  c #045377",
"r  c #0A5277",
"t  c #0A527C",
"y  c #0A537C",
"u  c #0A537D",
"i  c #0A547C",
"p  c #095C7C",
"a  c #0A5883",
"s  c #0A5A86",
"d  c #0A5C87",
"f  c #0A5D8A",
"g  c #0A608B",
"h  c #09608F",
"j  c #09628E",
"k  c #096988",
"l  c #096391",
"z  c #096490",
"x  c #096493",
"c  c #096792",
"v  c #096A99",
"b  c #09689A",
"n  c #09689B",
"m  c #096A9D",
"M  c #087397",
"N  c #096DA0",
"B  c #0972A4",
"V  c #0972A5",
"C  c #087BA3",
"Z  c #0972AA",
"A  c #0975AA",
"S  c #0974AC",
"D  c #0975AD",
"F  c #0976AF",
"G  c #0977B0",
"H  c #0978B1",
"J  c #097AB3",
"K  c #097AB4",
"L  c #097BB6",
"P  c #0884B3",
"I  c #0882B8",
"U  c #0884B8",
"Y  c #0880BD",
"T  c #0881BF",
"R  c #058BBB",
"E  c #0791BD",
"W  c #0882C0",
"Q  c #0884C3",
"!  c #078EC0",
"~  c #078BC7",
"^  c #088BC7",
"/  c #088EC7",
"(  c #088BCB",
")  c #088BCC",
"_  c #0592C4",
"`  c #0795CC",
"'  c #0790D2",
"]  c #0795D2",
"[  c #079AD3",
"{  c #069DD7",
"}  c #0795D9",
"|  c #0795DB",
" . c #0796DA",
".. c #0797DE",
"X. c #079CDE",
"o. c #06A8D0",
"O. c #06A4D8",
"+. c #06A4DF",
"@. c #06ABDA",
"#. c #06ACD9",
"$. c #06ADDD",
"%. c #05B5DF",
"&. c #05BCDC",
"*. c #079DE1",
"=. c #079CE5",
"-. c #079DE5",
";. c #079EE6",
":. c #07A3E7",
">. c #06A8E0",
",. c #06ADE0",
"<. c #06A0E9",
"1. c #07A0EA",
"2. c #07A3EA",
"3. c #07A4E8",
"4. c #06A4E9",
"5. c #06A5E9",
"6. c #07A3EE",
"7. c #06A3EF",
"8. c #06A4EE",
"9. c #06AAEA",
"0. c #06ADE9",
"q. c #06ADEB",
"w. c #06AEEA",
"e. c #06ABEC",
"r. c #06AAEF",
"t. c #05B6E2",
"y. c #06B0E4",
"u. c #05B7E5",
"i. c #05BDE1",
"p. c #05B9E5",
"a. c #05B8E7",
"s. c #05BFE4",
"d. c #06B0ED",
"f. c #05B5EF",
"g. c #05BDE8",
"h. c #05BBEE",
"j. c #05BFEE",
"k. c #06A4F1",
"l. c #06A7F4",
"z. c #06A9F1",
"x. c #06ABF0",
"c. c #06A9F2",
"v. c #06ADF2",
"b. c #06ACF6",
"n. c #06ADFA",
"m. c #06B1F0",
"M. c #06B1F3",
"N. c #05B8F1",
"B. c #06B0F9",
"V. c #06B2FB",
"C. c #05B6FE",
"Z. c #05B7FF",
"A. c #05B9F8",
"S. c #05BBFA",
"D. c #05B8FC",
"F. c #05B8FD",
"G. c #05BDFE",
"H. c #04C0E9",
"J. c #04C6F3",
"K. c #04CBF2",
"L. c #04C1F8",
"P. c #04C3F9",
"I. c #04C2FA",
"U. c #04C3FA",
"Y. c #04C3FF",
"T. c #04C4FF",
"R. c #04CDFE",
"E. c #04CCFF",
"W. c #03D1F5",
"Q. c #03D2FA",
"!. c #03D0FF",
"~. c #03D2FF",
"^. c #03D9FF",
"/. c #02DAFE",
/* pixels */
"                                                                                ",
"                                                                                ",
"                              o                   o                             ",
"                              o o               o o                             ",
"                              o o             o o o                             ",
"                              o o -           o o o                             ",
"                              o o Y           S o o                             ",
"                              o o <.         .) o o                             ",
"                              o s 2.~       X.-.w o                             ",
"                              o 5 r.{       e.3.* o                             ",
"                              o < S.O.      N.C.o o                             ",
"                              o d @.$.    R t.>.4 o                             ",
"                              o r E.J.e   _ W.P.8 o                             ",
"                              o j !.H.B % ` /.P.8 o                             ",
"                              o l a.a.B o 9.s.,.x o                             ",
"                              o m T.T.J ; v.E.G.y o                             ",
"                              o J D.+.( t x.f.C.S o                             ",
"                                m 3.9.i & / v.*.s                               ",
"                                < g 2 v 8 c 1 A 9                               ",
"                                o U P./ i A.y.j o                               ",
"                                o [ g.P 9 P.a.U o                               ",
"                                f e.^.C # j.Q.2.6                               ",
"                                v f.&.M # o.i.x.l                               ",
"                                Y e.K.k @ t.~.:.L                               ",
"                                G C.@.p @ E h.b.J                               ",
"                                G c.w., o R f.n.v                               ",
"                                Q 6.B.@ o ] V.6.L o                             ",
"                                q l.'       | 1.:                               ",
"                                o -.|       -.| o                               ",
"                                o Z k.      k.y o                               ",
"                                o 3 W       | = o                               ",
"                                o o o       o o o                               ",
"                                o o o       o o o                               ",
"                                o o         o o o                               ",
"                                o o           o o                               ",
"                                                                                ",
"                                                                                ",
"                                                                                ",
"                                                                                ",
"                                                                                "
};
