/* XPM */
static char *fb18e2b32fbf430db7cb51154fcb52edfgE9TNWIbHkQnXSE[] = {
/* columns rows colors chars-per-pixel */
"40 40 125 2 ",
"   c None",
".  c #0B0101",
"X  c #0B0909",
"o  c #0B1624",
"O  c #0B202E",
"+  c #0B2134",
"@  c #0B2439",
"#  c #072F40",
"$  c #0B2C45",
"%  c #0B3450",
"&  c #0B3954",
"*  c #0A3D5C",
"=  c #0A4161",
"-  c #0A4A63",
";  c #0A466A",
":  c #0A4B6F",
">  c #0A4C72",
",  c #0A527A",
"<  c #0A5984",
"1  c #0A5E8B",
"2  c #0A628F",
"3  c #096B8E",
"4  c #096392",
"5  c #096B9D",
"6  c #096EA2",
"7  c #097AA0",
"8  c #0975AB",
"9  c #0977B1",
"0  c #097CB3",
"q  c #0785B5",
"w  c #0882B7",
"e  c #0881BD",
"r  c #078BBA",
"t  c #088ABF",
"y  c #4086B0",
"u  c #0884C1",
"i  c #078EC4",
"p  c #088BC5",
"a  c #0889CA",
"s  c #0890CE",
"d  c #0799CC",
"f  c #088FD2",
"g  c #0794D3",
"h  c #0892D7",
"j  c #079CD4",
"k  c #0796DB",
"l  c #079ADC",
"z  c #06A4D4",
"x  c #06ACD4",
"c  c #06A4DB",
"v  c #06ABDC",
"b  c #05B2D5",
"n  c #06B2DB",
"m  c #05BBDE",
"M  c #079CE3",
"N  c #079FE9",
"B  c #06A4E5",
"V  c #06AAE4",
"C  c #07A2EC",
"Z  c #06ABEA",
"A  c #05B4E0",
"S  c #05BBE4",
"D  c #06B3EC",
"F  c #05BBED",
"G  c #06A5F2",
"H  c #06ABF6",
"J  c #06ADFC",
"K  c #05B7F6",
"L  c #06B3F4",
"P  c #05BCF3",
"I  c #05B8F5",
"U  c #05BEF6",
"Y  c #06B0F8",
"T  c #06B3FC",
"R  c #06B0FF",
"E  c #06B1FF",
"W  c #06B3FE",
"Q  c #06B2FF",
"!  c #06B3FF",
"~  c #05B5FF",
"^  c #05B6FF",
"/  c #05B7FF",
"(  c #06B1FE",
")  c #05B8FB",
"_  c #05B9FB",
"`  c #05BAFE",
"'  c #05BBFE",
"]  c #05BBFF",
"[  c #05BCFE",
"{  c #05BCFF",
"}  c #05BFFF",
"|  c #05C0E1",
" . c #05C2E0",
".. c #04C4E3",
"X. c #05C2E4",
"o. c #05C0E6",
"O. c #04C6EC",
"+. c #04C8EE",
"@. c #04CFF6",
"#. c #05C0FE",
"$. c #05C1FF",
"%. c #04C3FF",
"&. c #04C4FF",
"*. c #04C5FF",
"=. c #04C6FF",
"-. c #04C7FF",
";. c #04C8FF",
":. c #04C9FF",
">. c #04CAFF",
",. c #04CBFF",
"<. c #04CDFF",
"1. c #04CEFF",
"2. c #03D2FF",
"3. c #03D3FF",
"4. c #03D4FF",
"5. c #03D5FF",
"6. c #03D6FF",
"7. c #03D8F8",
"8. c #03DAFB",
"9. c #03D8FF",
"0. c #03D9FF",
"q. c #03DAFF",
"w. c #02DCFE",
"e. c #02DDFF",
"r. c #02DEFF",
/* pixels */
"                                                                                ",
"                                                              .                 ",
"                . . . .                                   . . . .               ",
"                . . . . .                             . . . . . .               ",
"                . . . . . .                           . . . . . .               ",
"                . . . . . $ =                       6 . . . . . .               ",
"                . . . . . 8 G                     u C 4 . . . . .               ",
"                . . . . $ C H a                   H N f * . . . .               ",
"                . . . . C h B H                 0 ~ g C 0 . . .                 ",
"                . . . . 0 ~ j ` q             # L D L ~ * . . .                 ",
"                  . . . 5 ` :.v L             q P F -.B % . . .                 ",
"                  . . . C v S b P q           D b o.m Y g . . .                 ",
"                  . . . w -.0.r.A V         8 D @.r.6.L = . . .                 ",
"                  . . < Z -.r.r.b Z 4 y o   g z S 8.6.{ C : . .                 ",
"                  . . : 0 v S S :.B u . . o C L 2.o.S j < . . .                 ",
"                  . . 1 J { :.:.%.l M . . 1 M Z -.:.-.~ H ; . .                 ",
"                  . . 2 k B V V B L G . . , J Y V V V C e @ . .                 ",
"                  . . 2 J T ~ D g 6 * . . . + 4 p c T T N . .                   ",
"                      . $ , & O 3 t M . . 8 Z d 7 - . . . .                     ",
"                      . . 0 Z :.:.%.B . X 5 B :.,.-.H 4 . .                     ",
"                    . . ; k j n O.:.p X . : Z 6.S b p l * .                     ",
"                    . . C k U 9.8.x d X X   c m 8.2.L l a . .                   ",
"                  . . 4 l T v S  .S t X X   z +...b c T h > .                   ",
"                    . u H l %.6.6.S   X .   d S 6.:.) k J < .                   ",
"                    . 9 M T ` v z V   X .   q v v V W T l % .                   ",
"                  . . 4 R R l ) Z c   . .     Z ] L l R J = .                   ",
"                    . 6 J M R J l s   . .     G a W J N l > .                   ",
"                    . . 1 G R M C e           l M M R f . . .                   ",
"                    . . . G N J G             a N N C 9 . . .                   ",
"                    . . . @ h G l               N J 5 . . . .                   ",
"                    . . . . * 8 u               e % @ . . .                     ",
"                      . . . . . .               . . . . . .                     ",
"                      . . . . . .               . . . . . .                     ",
"                      . . . . .                   . . . . .                     ",
"                      .   . .                     . .     .                     ",
"                    .                                     .                     ",
"                    .                                       .                   ",
"                    .                                       .                   ",
"                    .                                       .                   ",
"                                                                                "
};
