/* XPM */
static char *_52720619684499fafa84e4c627c5f72qUwM4aV8VUA5QWZH[] = {
/* columns rows colors chars-per-pixel */
"40 40 141 2 ",
"   c None",
".  c #0B0000",
"X  c #0A0101",
"o  c #0B0101",
"O  c #0A0202",
"+  c #0B0202",
"@  c #0B0303",
"#  c #0B0A0A",
"$  c #0A1418",
"%  c #0B1726",
"&  c #0B1828",
"*  c #0B1C2D",
"=  c #0B2B43",
"-  c #0A344E",
";  c #0B354F",
":  c #0B3450",
">  c #0B3550",
",  c #0A3A59",
"<  c #0A3E5F",
"1  c #0A415F",
"2  c #0A4161",
"3  c #0A4263",
"4  c #0A4264",
"5  c #0A476B",
"6  c #0A486D",
"7  c #0A496E",
"8  c #0A4C6D",
"9  c #0A4E75",
"0  c #0A5071",
"q  c #0A5074",
"w  c #0A5179",
"e  c #0A527B",
"r  c #095579",
"t  c #095985",
"y  c #0A5B86",
"u  c #0A5C89",
"i  c #0A5C8A",
"p  c #096088",
"a  c #09618D",
"s  c #0A648F",
"d  c #096190",
"f  c #096C96",
"g  c #096C9A",
"h  c #096A9D",
"j  c #096B9D",
"k  c #08739A",
"l  c #096DA0",
"z  c #096CA1",
"x  c #096DA2",
"c  c #096EA2",
"v  c #096FA5",
"b  c #0971A2",
"n  c #0974A1",
"m  c #0970A5",
"M  c #0971A7",
"N  c #0975AD",
"B  c #0978A8",
"V  c #097BAF",
"C  c #087DB8",
"Z  c #087EB9",
"A  c #0887AF",
"S  c #0785B6",
"D  c #0880B5",
"F  c #0881BB",
"G  c #0881BE",
"H  c #0881BF",
"J  c #058BBA",
"K  c #0794B7",
"L  c #0795B9",
"P  c #0783C1",
"I  c #0886C0",
"U  c #088EC1",
"Y  c #078CCE",
"T  c #078FCF",
"R  c #0888C8",
"E  c #088AC8",
"W  c #0796C8",
"Q  c #0694CD",
"!  c #0797CE",
"~  c #069ECB",
"^  c #078DD0",
"/  c #0790D4",
"(  c #0792D5",
")  c #0795D5",
"_  c #069DD1",
"`  c #0794D9",
"'  c #0797DD",
"]  c #079BD9",
"[  c #06A7D1",
"{  c #06A9D5",
"}  c #06A2DB",
"|  c #06AADD",
" . c #05B0DE",
".. c #05BADF",
"X. c #07A2E4",
"o. c #06A0E6",
"O. c #06A7E7",
"+. c #05A9E0",
"@. c #06ACE1",
"#. c #06A8E7",
"$. c #06AAE7",
"%. c #06A6E8",
"&. c #06A2ED",
"*. c #07A5EF",
"=. c #06A7EF",
"-. c #06ADEA",
";. c #06ADEB",
":. c #06ABEC",
">. c #06A9EE",
",. c #06ADEF",
"<. c #05B2E1",
"1. c #05B0E5",
"2. c #05B7E5",
"3. c #05B6E6",
"4. c #05BDE4",
"5. c #05B3E9",
"6. c #05BDEA",
"7. c #05BCEC",
"8. c #05BEEF",
"9. c #07A5F0",
"0. c #06A5F2",
"q. c #06A6F3",
"w. c #06AAF5",
"e. c #06ACF4",
"r. c #05B0F7",
"t. c #06B2F7",
"y. c #05B5F6",
"u. c #05B8F3",
"i. c #05B8F4",
"p. c #05BAF7",
"a. c #05BBF7",
"s. c #05BBFF",
"d. c #04C5EF",
"f. c #04C1F3",
"g. c #04C9F0",
"h. c #04C2FD",
"j. c #04CAF8",
"k. c #04CAFF",
"l. c #04CCFF",
"z. c #03D3FD",
"x. c #03D8FF",
/* pixels */
"                                                                                ",
"                                                                                ",
"                                o             o o                               ",
"                                o o           o o                               ",
"                                o o           o o                               ",
"                                o o         o o o                               ",
"                                o o P       v o o                               ",
"                                o 6 `       ( o o                               ",
"                                o d o.      *.< o                               ",
"                                o j #.    Q >.&                                 ",
"                                o a u.    +.y.o                                 ",
"                                o p {     ~ | -                                 ",
"                                o B z.J    .l.3                                 ",
"                                o n x.S o 2.j.-                                 ",
"                                o D 4.U % 5.2.y                                 ",
"                                o V k.] w i.h.3                                 ",
"                                  E i.) w #.s.l                                 ",
"                                  m ,.I > %.X.6                                 ",
"                                  u s q ; 8 b 3                                 ",
"                                  o W } 1 a.f +                                 ",
"                                  * +.1.r u.! +                                 ",
"                                  l 6.[ 0 g.$.,                                 ",
"                                  m 7.K $ ..-.w                                 ",
"                                  E f.L # g.-.j                                 ",
"                                  G i.A + <.t.z                                 ",
"                                  G e.k + _ 0.e                                 ",
"                                  T e.g + r.w.l                                 ",
"                                  y 9.F   T 0.5                                 ",
"                                  9 &.    / ' +                                 ",
"                                  = ^     0.Z +                                 ",
"                                  o N     Z u +                                 ",
"                                  o o       + +                                 ",
"                                  o o       o o                                 ",
"                                  o o       o o                                 ",
"                                  o o       o                                   ",
"                                                                                ",
"                                                                                ",
"                                                                                ",
"                                                                                ",
"                                                                                "
};
