/* XPM */
static char *cf6d6e6186ed4224fe0de330e7eea162r7mZ0ldSLgxV1n0w[] = {
/* columns rows colors chars-per-pixel */
"40 40 244 2 ",
"   c None",
".  c #0B0000",
"X  c #0B0101",
"o  c #0B0200",
"O  c #0B0202",
"+  c #0B0303",
"@  c #0B0404",
"#  c #0B0505",
"$  c #0B0606",
"%  c #0A0808",
"&  c #0B0909",
"*  c #0B1220",
"=  c #0B1625",
"-  c #0A1827",
";  c #0B1A2B",
":  c #0B202B",
">  c #0B2439",
",  c #0B2639",
"<  c #0B2C44",
"1  c #0B2F46",
"2  c #0B304A",
"3  c #0B3548",
"4  c #0B3450",
"5  c #0B3754",
"6  c #0B3A57",
"7  c #0B3B59",
"8  c #0A3D5D",
"9  c #0A4060",
"0  c #0A4161",
"q  c #0A4162",
"w  c #0A4264",
"e  c #0A4366",
"r  c #0A4464",
"t  c #0A4466",
"y  c #0A496B",
"u  c #0A486D",
"i  c #0A4E74",
"p  c #0A5279",
"a  c #095F83",
"s  c #0A5B86",
"d  c #0A5D8B",
"f  c #096694",
"g  c #076C95",
"h  c #096C90",
"j  c #096B97",
"k  c #096698",
"l  c #096799",
"z  c #09679A",
"x  c #096A9D",
"c  c #096B9E",
"v  c #096C9E",
"b  c #08709A",
"n  c #096BA0",
"m  c #096CA1",
"M  c #096DA2",
"N  c #096FA3",
"B  c #096EA4",
"V  c #0971A3",
"C  c #0970A6",
"Z  c #0970A7",
"A  c #0875A5",
"S  c #097AA3",
"D  c #0971A8",
"F  c #0973A9",
"G  c #0974AC",
"H  c #0976AD",
"J  c #0975AE",
"K  c #0976AF",
"L  c #0977B1",
"P  c #0978B1",
"I  c #097AB4",
"U  c #097AB5",
"Y  c #097EB7",
"T  c #087EBB",
"R  c #0786B9",
"E  c #0880BE",
"W  c #0881BE",
"Q  c #0888BE",
"!  c #3F84AE",
"~  c #078FC0",
"^  c #0887C8",
"/  c #088FC9",
"(  c #088DCD",
")  c #088ECF",
"_  c #088FCF",
"`  c #0790C6",
"'  c #0792C9",
"]  c #0790CB",
"[  c #0792CA",
"{  c #0696C9",
"}  c #0893CC",
"|  c #0799CA",
" . c #069DCC",
".. c #0794D1",
"X. c #0797D1",
"o. c #0795D6",
"O. c #0890D4",
"+. c #0798D2",
"@. c #079AD3",
"#. c #0799D7",
"$. c #069CD4",
"%. c #0793D9",
"&. c #0795D8",
"*. c #0796D8",
"=. c #0797D9",
"-. c #0794DA",
";. c #0796DD",
":. c #079ADB",
">. c #0799DF",
",. c #079ADE",
"<. c #079BDE",
"1. c #079EDC",
"2. c #06A2CE",
"3. c #06A0D1",
"4. c #06A3D2",
"5. c #06A5D5",
"6. c #06A5DB",
"7. c #07A0DE",
"8. c #06A8D9",
"9. c #06ADDD",
"0. c #06B1D4",
"q. c #05B5D7",
"w. c #05B7DB",
"e. c #06B1DC",
"r. c #05B5DC",
"t. c #079BE2",
"y. c #079FE0",
"u. c #079CE3",
"i. c #079EE2",
"p. c #079FE2",
"a. c #079CE4",
"s. c #079FE4",
"d. c #079EE7",
"f. c #079FE7",
"g. c #079FE9",
"h. c #06A2E3",
"j. c #06A5E0",
"k. c #06A6E5",
"l. c #06A5E6",
"z. c #06A9E0",
"x. c #06A8E1",
"c. c #06A9E1",
"v. c #06AAE7",
"b. c #07A0E9",
"n. c #07A1E9",
"m. c #07A2E8",
"M. c #07A2E9",
"N. c #07A1EA",
"B. c #06A5EA",
"V. c #07A1EC",
"C. c #07A1ED",
"Z. c #07A3EC",
"A. c #07A2ED",
"S. c #07A3ED",
"D. c #07A2EE",
"F. c #07A3EE",
"G. c #06A3EF",
"H. c #06A7EC",
"J. c #07A4EF",
"K. c #07A5EF",
"L. c #06A9EA",
"P. c #06AAEB",
"I. c #06ACE8",
"U. c #06ADE9",
"Y. c #05AFE8",
"T. c #06AFE9",
"R. c #06AEEB",
"E. c #06AAED",
"W. c #06ADEC",
"Q. c #06ADEF",
"!. c #05B4E1",
"~. c #05B5E1",
"^. c #05B6E0",
"/. c #05B6E2",
"(. c #06B2E4",
"). c #05B5E6",
"_. c #05B6E7",
"`. c #05BEE0",
"'. c #05B9E6",
"]. c #05B3E8",
"[. c #05B7E9",
"{. c #05B5EB",
"}. c #05B6EB",
"|. c #06B1EF",
" X c #05B4ED",
".X c #05BAE9",
"XX c #05B9EF",
"oX c #07A4F0",
"OX c #07A4F1",
"+X c #07A6F1",
"@X c #06A7F5",
"#X c #06A8F6",
"$X c #06AFFB",
"%X c #06AEFF",
"&X c #06AFFF",
"*X c #06B0F1",
"=X c #06B1F1",
"-X c #06B1F2",
";X c #06B1F3",
":X c #06B3F2",
">X c #05B4F4",
",X c #05B4F7",
"<X c #05BCF6",
"1X c #06B1FA",
"2X c #06B1FB",
"3X c #05B7F9",
"4X c #06B0FF",
"5X c #06B3FE",
"6X c #06B3FF",
"7X c #05B5FF",
"8X c #06B5FF",
"9X c #05B6FF",
"0X c #05B7FF",
"qX c #05B9FA",
"wX c #05B8FB",
"eX c #05B9FB",
"rX c #05BBFC",
"tX c #05C0DF",
"yX c #05C0E2",
"uX c #05C1E5",
"iX c #04C4EB",
"pX c #04C5ED",
"aX c #04C7EE",
"sX c #04CBF7",
"dX c #04C2FB",
"fX c #05C0FF",
"gX c #04C2FF",
"hX c #04C3FF",
"jX c #04C4FF",
"kX c #04C7FE",
"lX c #04C8FF",
"zX c #04CAFF",
"xX c #04CBFF",
"cX c #03CFFF",
"vX c #03D1F5",
"bX c #03D1FF",
"nX c #03D2FF",
"mX c #03D3FF",
"MX c #03D5FF",
"NX c #03D9FB",
"BX c #03D8FF",
"VX c #03DCFF",
"CX c #02DDFF",
"ZX c #02DEFF",
/* pixels */
"                                                                                ",
"                                                                                ",
"                      X X X                           X X X X                   ",
"                      X X X X                       X X X X X                   ",
"                      X X X X                       X X X X X                   ",
"                      X X X X u                   e X X X X X                   ",
"                      X X X 2 g.                  F.5 X X X X                   ",
"                      X X X P F.(               =.F.P X X X                     ",
"                      X X X J.o.J.              $Xo.F.8 X X                     ",
"                      X X X =.P.wXg           R ,XP.N.+ X X                     ",
"                      X X X ] hX'.{           Y.).hX#.X X X                     ",
"                      X X 7 P./.0. X        b XXq.r.P.9 X X                     ",
"                      X X X $.mXCX{.A       ' .XCXmXj., X X                     ",
"                      X X s ,XmXNX8...! ;   h.e.CXmXwXv X X                     ",
"                      X X 0 ` /.iX<X( X X 8 B.kXuX'.' p X X                     ",
"                        X l 8XhXzXrX,.X X c ,.hXxXjX8XF X X                     ",
"                        X d ,.v.x.l.4X= X H 2Xl.x.v.i.M X X                     ",
"                        X z 4X8XW.Q i X X ; f } -X8X4XH X                       ",
"                          X < t 3 S :.t X Y ' h : y 0 X                         ",
"                          X 6 7.kXzXW.1 $ V wXzXdX1.7 X                         ",
"                          X B @.r.sXx.& $ j {.aX/.+.H X X                       ",
"                        X * u.Y.MXvX| & $ a 9.NXmXY.f.e X                       ",
"                        X m M.Y.`.`. .& $   {.tXw.Y.N.B X                       ",
"                        O T V.:XmXpX3.$ +   4.MXcX-XN.O.X                       ",
"                        X F V.8X(.5.~ # @   6.2.].8XK.W X                       ",
"                        X m &XM.wX-X  X X   X.|.-Xs.4XP X                       ",
"                        X B #X+X2Xh.  X X     u.4XK.#XW X                       ",
"                          X U &Xs.(           V.u.4XT > X                       ",
"                        X X c V.oX-.          s.OXOXF X X                       ",
"                        X X X L s.;.          %.@XG X X X                       ",
"                          X X 4 B             ^ z 8 X X                         ",
"                          X X X X             X X X X X                         ",
"                          X X X X               X X X X                         ",
"                          X X X X               X X X X                         ",
"                          X   X                   X X                           ",
"                                                        X                       ",
"                                                        X                       ",
"                        X                               X                       ",
"                        X                               X                       ",
"                                                                                "
};
