/* XPM */
static char *_19e569578214428f638f4f5011539438cZET958grcdGhF5[] = {
/* columns rows colors chars-per-pixel */
"40 40 144 2 ",
"   c None",
".  c #0B0101",
"X  c #0B0909",
"o  c #0A1212",
"O  c #0B101C",
"+  c #0B1727",
"@  c #0B192A",
"#  c #0B2439",
"$  c #0A2B3E",
"%  c #0B2F48",
"&  c #093742",
"*  c #0B344D",
"=  c #093A4E",
"-  c #0B3551",
";  c #0B3955",
":  c #0A3C59",
">  c #09435C",
",  c #0A4264",
"<  c #0A466A",
"1  c #0A496E",
"2  c #0A4C71",
"3  c #095371",
"4  c #0A5977",
"5  c #0A537B",
"6  c #0A5680",
"7  c #0A5B85",
"8  c #0A5F8B",
"9  c #0A638D",
"0  c #096495",
"q  c #096B96",
"w  c #096799",
"e  c #096A9B",
"r  c #097498",
"t  c #096EA3",
"y  c #0876A1",
"u  c #087BA2",
"i  c #0974AC",
"p  c #077CA8",
"a  c #097AAA",
"s  c #0977B1",
"d  c #097AB4",
"f  c #097DB8",
"g  c #0887B1",
"h  c #0888B3",
"j  c #0881BD",
"k  c #0789BC",
"l  c #0889BE",
"z  c #428AB4",
"x  c #0884C1",
"c  c #088BC6",
"v  c #078FC8",
"b  c #088BCB",
"n  c #0794C0",
"m  c #0891C5",
"M  c #0794CC",
"N  c #0892CC",
"B  c #079BCD",
"V  c #088ED1",
"C  c #0797D6",
"Z  c #0891D4",
"A  c #079AD5",
"S  c #0796DB",
"D  c #0893D8",
"F  c #079ADC",
"G  c #07A2D6",
"H  c #06AAD4",
"J  c #07A3DB",
"K  c #06ABDB",
"L  c #06B1D2",
"P  c #05B3DC",
"I  c #05BADD",
"U  c #079CE3",
"Y  c #079FE9",
"T  c #06A4E4",
"R  c #06AAE5",
"E  c #07A3EB",
"W  c #06ADEC",
"Q  c #05B5E5",
"!  c #05BDE3",
"~  c #05B4ED",
"^  c #05BBEF",
"/  c #07A5F1",
"(  c #06ABF4",
")  c #06ADFD",
"_  c #05B4F3",
"`  c #05BCF7",
"'  c #05B7FF",
"]  c #05B6FF",
"[  c #05B5FF",
"{  c #06B3FE",
"}  c #05BBF9",
"|  c #05B9FA",
" . c #05B8FB",
".. c #05BAFB",
"X. c #05B8FF",
"o. c #05BAFF",
"O. c #05BBFF",
"+. c #05BCFC",
"@. c #05BCFF",
"#. c #05BDFF",
"$. c #05BEFF",
"%. c #05BFFF",
"&. c #05BCFD",
"*. c #05C0E5",
"=. c #05C2E4",
"-. c #05C3E5",
";. c #05C5E7",
":. c #05C4E2",
">. c #04C3E9",
",. c #04C6EE",
"<. c #04C9E9",
"1. c #04CBE9",
"2. c #04CBEF",
"3. c #04CEEF",
"4. c #04CEF6",
"5. c #04C2FB",
"6. c #05C1FF",
"7. c #04C3FF",
"8. c #04C4FF",
"9. c #04C5FF",
"0. c #04C6FF",
"q. c #04C7FF",
"w. c #04C5FF",
"e. c #04C8FA",
"r. c #04C8FF",
"t. c #04C9FF",
"y. c #04CAFF",
"u. c #04CBFF",
"i. c #04CDFF",
"p. c #04CEFF",
"a. c #04CDFF",
"s. c #04D0F3",
"d. c #03D2FA",
"f. c #03D7F8",
"g. c #03D1FF",
"h. c #03D2FF",
"j. c #03D6FF",
"k. c #03D3FE",
"l. c #03DBFB",
"z. c #03D9FF",
"x. c #03DBFF",
"c. c #03DCFF",
"v. c #02DEFF",
"b. c #02DFFF",
/* pixels */
"                                                                                ",
"    . . .                                                               . . .   ",
"  . . . . . . .                                                   . . . . . . . ",
"  . . . . . . . . .                                           . . . . . . . .   ",
"  . . . . . . . . . .                                     . . . . . . . . . . . ",
"  . . . . . . . . . 2 w                                 1 i # . . . . . . . .   ",
"    . . . . . . . , f ) U                             w ) E s @ . . . . . . .   ",
"    . . . . . . , b ( U { b                         < ( ) S ) t * . . . . . .   ",
"    . . . . . . E / F b ' ' q                     o F ' ' j S ) f . . . . . .   ",
"    . . . . . . 5 { X.W G &.' 3                   k &.~ G  .' E . . . . . .     ",
"      . . . . . : U &.q.e.H 5.W =               q 6.^ ! y.q.( c X . . . . .     ",
"    . . . . . : ( ' K P L ! H q.M             > _ ^ H :.! P ~ X.Z . . . . .     ",
"      . . . . . 7 ~ y.j.v.v.d.K X.9           N | P z.v.c.g.q.A * X . . . .     ",
"      . . . : j ( &.y.j.v.f.! H T E   z @   9 ' B Q -.l.c.g.q.' E i . . . .     ",
"      . . . . : q T R Q *.,.p.6.T ( i . . . F F | q.p.>.! Q J c 5 . . . . .     ",
"      . . . + V { ' 6.q.y.y.q.| T F E . . 5 { Z T &.q.y.y.6.X.' ) s . . . .     ",
"      . . . . e Z U A J R R R E { ) E . . 5 ( { { T T R R R T U d 1 . . .       ",
"        . . . j { ) { ' W J N a 7 : . . . . . : 9 a N J W ' { ) E 6 . . .       ",
"            . . . . . . . 4 r g M T / < . c ( T B g r 4 . . . . . .             ",
"          . . . . - U W 6.y.p.p.q.| F # . e F 6.q.y.p.q.&.( b . . . .           ",
"          . . . , V F m H P ;.d.p.J A X X $ R ~ d.1.*.P B l Y j # . . .         ",
"        . . . # ( S F ` p.z.c.1.H K r X X   G B I 1.v.k.p.~ S U V . . .         ",
"        . . , x S ) ( G P I :.s.P 5.$ X .   u Q 4.4.-.! J J { ( D d . . .       ",
"        . . O ) ( S T #.y.g.z.g.K B   X X     ` H k.d.p.q. .S U ) Z . . .       ",
"        . . . V D ) { ' _ H K n | p   X .     A G H K K ' ' ) ( V t . .         ",
"        . . O U ) ) ) S E &.&.J _     . .     a  .T &.X.F F ) ) ) i . . .       ",
"        . . - s ) / S ) ' { C U b     . .       ( Z U { { ) Z ) U 0 . .         ",
"          . . . * j ) ) ) V S { t               b F E C ) ) ) 2 . . . .         ",
"          . . . . w U / S ) D /                 t ) U ( V ( S . . . . .         ",
"          . . . . . . i ) / Y c                   / D ) ) - . . . . . .         ",
"            . . . . . # , 5 b 7                   e f < % . . . . . .           ",
"            . . . . . . . . .                     . . . . . . . . .             ",
"            . . . . . . . . .                       . . . . . . . .             ",
"            . . . . . . .                             . . . . . . . .           ",
"            .     .   . .                               .           .           ",
"          . .                                                       .           ",
"          .                                                         . .         ",
"        . .                                                         . .         ",
"        . .                                                         . .         ",
"                                                                                "
};
